<svg width="154" height="76" viewBox="0 0 154 76" fill="none" xmlns="http://www.w3.org/2000/svg">
<path d="M10.0204 40.2218C10.0394 40.2782 10.0583 40.3298 10.0773 40.3815C10.0583 40.3298 10.0394 40.2735 10.0204 40.2218Z" fill="#FFE500"/>
<path d="M10.2532 40.7943C10.2722 40.8319 10.2911 40.8694 10.3101 40.9117C10.2911 40.8741 10.2722 40.8366 10.2532 40.7943Z" fill="#FFE500"/>
<path d="M11.8224 42.4559C11.6966 42.3861 11.5849 42.3069 11.4685 42.2232C11.2217 42.0463 11.0075 41.8462 10.812 41.6228C10.8399 41.6507 10.8632 41.6786 10.8865 41.7112C10.8585 41.6833 10.8352 41.6553 10.812 41.6228C10.6211 41.404 10.4488 41.1666 10.3138 40.9107C10.2905 40.8734 10.2765 40.8315 10.2532 40.7943C10.188 40.6593 10.1275 40.5244 10.0763 40.3847C10.0577 40.3289 10.039 40.273 10.0204 40.2172C9.9785 40.0822 9.94591 39.9472 9.91797 39.8076C9.90866 39.7517 9.89003 39.6959 9.88538 39.6354C9.85744 39.4492 9.83882 39.2584 9.83882 39.0629C9.83882 39.0583 9.83882 39.0536 9.83882 39.049V38.6115C9.80622 38.8162 9.7876 39.021 9.7876 39.2305L9.85279 48.3156C9.8621 49.6653 10.5885 50.908 11.7572 51.5829L15.6172 53.7239C16.6043 54.2917 17.759 53.9612 18.2619 52.9419C18.5227 52.416 18.6623 51.8342 18.6577 51.2292L18.6204 46.2956L11.8224 42.4652V42.4559Z" fill="#FFE500"/>
<path d="M11.2776 27.3015C11.2124 27.3527 11.1426 27.4039 11.082 27.4598C11.1007 27.4505 11.1146 27.4458 11.1332 27.4411C11.1379 27.4365 11.1426 27.4318 11.1519 27.4225C11.1472 27.4272 11.1426 27.4318 11.1332 27.4411C11.1845 27.3946 11.2264 27.3434 11.2776 27.3015Z" fill="#FFA900"/>
<path d="M11.7945 26.9431C11.6129 27.0455 11.4453 27.1619 11.287 27.2922C11.45 27.1572 11.6269 27.0362 11.8178 26.9338L11.7945 26.9478V26.9431Z" fill="#FFA900"/>
<path d="M23.57 46.9006C23.5048 46.9379 23.435 46.9658 23.3698 46.9984C23.3558 47.0124 23.3419 47.031 23.3232 47.0449C23.4071 47.0077 23.4862 46.9658 23.5654 46.9193L31.4902 42.4744C31.5973 42.4139 31.6998 42.3441 31.8022 42.2697C31.7091 42.3348 31.6113 42.4 31.5089 42.4558L23.5654 46.9006H23.57Z" fill="#FFA900"/>
<path d="M32.0584 42.0787C32.0025 42.1206 31.9513 42.1718 31.8954 42.2091C31.9513 42.1672 32.0025 42.1206 32.0584 42.0787Z" fill="#FFA900"/>
<path d="M31.4949 26.9431L23.57 22.4983C22.4339 21.8607 21.0603 21.8374 19.9009 22.4145C19.1326 23.1453 18.681 24.1599 18.681 25.249V29.8288L22.6108 32.0349C23.8447 32.7284 24.6083 34.0316 24.6083 35.4465V39.5702L28.6266 41.8182C29.7348 42.4419 31.0758 42.4837 32.2166 41.9485C33.0174 41.2178 33.497 40.1799 33.497 39.0675V30.3547C33.497 28.9398 32.7334 27.6366 31.4995 26.9431H31.4949Z" fill="#FFA900"/>
<path d="M11.2776 27.3021C11.2776 27.3021 11.2876 27.2922 11.2926 27.2922C11.2926 27.2922 11.2826 27.3021 11.2776 27.3021Z" fill="#FFC700"/>
<path d="M19.8963 22.4145C19.8963 22.4145 19.9335 22.3773 19.9521 22.3586C19.8683 22.3959 19.7892 22.4378 19.71 22.4843L11.8224 26.9291L19.724 22.4983C19.7799 22.4657 19.8404 22.4424 19.8963 22.4145Z" fill="#FFC700"/>
<path d="M19.724 22.4984L11.8224 26.9292C11.6315 27.0363 11.4546 27.1573 11.2916 27.2876C11.2916 27.2876 11.2823 27.2969 11.2776 27.2969C11.2264 27.3388 11.1798 27.39 11.1333 27.4366C11.1053 27.4645 11.0727 27.4924 11.0448 27.5203C10.9703 27.5901 10.8865 27.66 10.8213 27.7344C10.7235 27.8461 10.649 27.9718 10.5652 28.0881C10.5 28.1766 10.4255 28.2604 10.3743 28.3534C10.1322 28.7723 9.97388 29.2331 9.89472 29.7218C9.89472 29.7497 9.88076 29.7776 9.8761 29.8056C9.85282 29.9778 9.84351 30.1546 9.84351 30.3315V39.0443C9.84351 39.2444 9.86213 39.4399 9.89007 39.6307C9.89938 39.6866 9.91335 39.7378 9.92266 39.7936C9.9506 39.9333 9.98319 40.0775 10.0298 40.2125C10.0484 40.2684 10.067 40.3196 10.0856 40.3708C10.1368 40.515 10.1974 40.65 10.2626 40.785C10.2812 40.8222 10.2998 40.8595 10.3184 40.9013C10.3929 41.041 10.4814 41.176 10.5745 41.3063C10.5932 41.3342 10.6071 41.3621 10.6257 41.3854C10.6071 41.3621 10.5932 41.3295 10.5745 41.3063C10.649 41.4133 10.7282 41.5157 10.8167 41.6135C11.0122 41.8369 11.2311 42.037 11.4732 42.2139C11.5849 42.2976 11.7013 42.3768 11.8271 42.4466L18.6251 46.277L18.6624 46.2956V33.9479H18.6857V25.2351C18.6857 24.146 19.1373 23.1314 19.9056 22.4006C19.8497 22.4286 19.7892 22.4518 19.7333 22.4844L19.724 22.4984Z" fill="#FFC700"/>
<path d="M10.0768 40.3847C10.058 40.3335 10.0392 40.2776 10.0204 40.2264C10.0392 40.2823 10.058 40.3381 10.0768 40.394V40.3847Z" fill="#FFE500"/>
<path d="M10.3147 40.9117C10.2958 40.8741 10.2768 40.8366 10.2579 40.7943C10.2768 40.8319 10.2958 40.8741 10.3194 40.9117H10.3147Z" fill="#FFE500"/>
<path d="M9.91817 39.8075V39.7982C9.90409 39.7423 9.89001 39.6911 9.88531 39.6353C9.8947 39.6958 9.90879 39.7516 9.91817 39.8075Z" fill="#FFE500"/>
<path d="M10.2532 40.7942C10.1834 40.6593 10.1275 40.5196 10.0763 40.38C10.1275 40.5196 10.188 40.6546 10.2532 40.7896V40.7942Z" fill="#FFE500"/>
<path d="M10.0213 40.2171C9.97905 40.0821 9.94149 39.9378 9.91333 39.7982V39.8075C9.94149 39.9472 9.97435 40.0821 10.0166 40.2171H10.0213Z" fill="#FFE500"/>
<path d="M9.88111 39.6354C9.85294 39.4399 9.83417 39.2444 9.83417 39.049C9.83417 39.0536 9.83417 39.0583 9.83417 39.0629C9.83417 39.2584 9.85294 39.4492 9.88111 39.6354Z" fill="#FFE500"/>
<path d="M31.8969 42.2091C31.8685 42.2326 31.8353 42.2467 31.8022 42.2702C31.8306 42.2514 31.8638 42.2326 31.8969 42.2091Z" fill="#FFE500"/>
<path d="M32.2305 41.9392C32.2305 41.9392 32.2165 41.9392 32.2119 41.9485C32.1607 41.9951 32.1094 42.0369 32.0582 42.0835C32.1141 42.0369 32.1746 41.9951 32.2305 41.9439V41.9392Z" fill="#FFE500"/>
<path d="M28.622 41.8136L24.6037 39.5655L20.6785 37.3687C19.44 36.6752 18.6764 35.3721 18.6764 33.9572V46.3142L18.6531 46.3003L19.7193 46.896C20.8508 47.529 22.2151 47.5569 23.3698 46.9938C23.435 46.9612 23.5048 46.9333 23.57 46.896L31.5135 42.4512C31.616 42.3953 31.7091 42.3302 31.8069 42.265C31.8348 42.2464 31.8674 42.2278 31.9 42.2045C31.9559 42.1626 32.0071 42.1161 32.063 42.0742C32.1142 42.0323 32.1654 41.9858 32.2166 41.9392C31.0758 42.4698 29.7349 42.4279 28.6267 41.8089L28.622 41.8136Z" fill="#FFE500"/>
<path d="M18.6765 33.9572H18.6531V46.3049L18.6765 46.3189V33.9572Z" fill="#FFE500"/>
<path d="M60.9407 31.858C58.5567 31.858 56.5872 32.9518 55.5395 34.8554C55.0227 35.7769 54.7526 36.8428 54.7386 38.011C54.7154 39.6214 55.3579 41.1526 56.5453 42.3255C57.7186 43.4797 59.2645 44.122 60.8988 44.1267H60.9407C62.738 44.1267 64.2699 43.5682 65.3688 42.5117C66.5002 41.4179 67.1009 39.882 67.1009 38.0622C67.1009 34.3527 64.6238 31.858 60.9407 31.858ZM60.9407 41.1154C59.4181 41.1154 58.3565 39.8261 58.3565 37.983C58.3565 36.14 59.4042 34.8693 60.8988 34.8693C62.3935 34.8693 63.483 36.126 63.483 37.9225C63.483 39.7191 62.4121 41.1154 60.9407 41.1154Z" fill="white"/>
<path d="M100.36 31.858C97.9762 31.858 96.0067 32.9518 94.959 34.8554C94.4422 35.7769 94.1721 36.8428 94.1581 38.011C94.1349 39.6214 94.7774 41.1526 95.9601 42.3255C97.1335 43.4797 98.6793 44.122 100.314 44.1267H100.356C102.153 44.1267 103.685 43.5682 104.784 42.5117C105.915 41.4179 106.516 39.882 106.516 38.0622C106.516 34.3527 104.039 31.858 100.356 31.858H100.36ZM100.36 41.1154C98.8376 41.1154 97.776 39.8261 97.776 37.983C97.776 36.14 98.8237 34.8693 100.318 34.8693C101.813 34.8693 102.903 36.126 102.903 37.9225C102.903 39.7191 101.832 41.1154 100.36 41.1154Z" fill="white"/>
<path d="M131.822 31.779H129.815C129.736 31.779 129.671 31.7092 129.671 31.6254V29.88C129.671 29.5961 129.448 29.3634 129.178 29.3634H126.458C126.184 29.3634 125.96 29.5961 125.96 29.88V30.9598C125.96 31.4113 125.606 31.779 125.173 31.779H123.804C123.53 31.779 123.306 32.0117 123.306 32.2956V34.2597C123.306 34.5436 123.53 34.7763 123.804 34.7763H125.816C125.895 34.7763 125.96 34.8461 125.96 34.9299V39.9519C125.96 42.642 126.491 43.4333 127.287 43.787C127.743 44.015 128.465 44.1221 129.485 44.1221C130.383 44.1221 131.194 44.0662 131.892 43.9592C132.139 43.922 132.32 43.7079 132.32 43.4472V41.9253C132.32 41.6414 132.102 41.4133 131.827 41.4086C130.709 41.3854 129.671 41.1806 129.671 39.8588V34.9253C129.671 34.8415 129.736 34.7717 129.815 34.7717H131.822C132.097 34.7717 132.316 34.5389 132.316 34.255V32.2909C132.316 32.007 132.092 31.7743 131.822 31.7743V31.779Z" fill="white"/>
<path d="M144.487 31.9791C144.394 31.8441 144.25 31.765 144.096 31.765H141.377C141.191 31.765 141.023 31.9 140.976 32.0955L139.24 39.291C139.226 39.3608 139.165 39.4073 139.1 39.4073H139.016C138.951 39.4073 138.895 39.3608 138.876 39.291L137.14 32.0908C137.093 31.9 136.925 31.765 136.739 31.765H134.015C133.857 31.765 133.717 31.8441 133.624 31.9791C133.531 32.1141 133.503 32.2816 133.55 32.4445L136.716 43.7544C136.776 43.9778 136.967 44.1268 137.182 44.1268H140.93C141.144 44.1268 141.335 43.9732 141.395 43.7544L144.562 32.4445C144.608 32.2863 144.58 32.1141 144.487 31.9791Z" fill="white"/>
<path d="M48.3503 31.8349C47.2701 31.8349 46.1712 32.2119 45.2493 32.8961C45.2027 32.9286 45.1422 32.9333 45.0956 32.91C45.0817 32.9007 45.0677 32.8868 45.0584 32.8774V32.3236C45.0584 32.0443 44.8302 31.8209 44.5462 31.8209H41.7385C41.4545 31.8209 41.2263 32.049 41.2263 32.3236V46.6401C41.2263 47.1707 41.5197 47.6641 41.9946 47.9247L43.6196 48.8183C43.9642 48.9952 44.6021 49.1627 44.8582 49.0045C44.9932 48.9254 45.0584 48.7625 45.0584 48.5204V43.3495C45.0584 43.3495 45.077 43.3263 45.0956 43.317C45.1422 43.2937 45.2027 43.2937 45.2446 43.3263C46.3295 44.0384 47.4191 44.1128 47.4237 44.1128C47.7124 44.1547 47.9778 44.178 48.2432 44.178C50.1709 44.178 51.8192 43.1448 52.7737 41.3389C53.2487 40.3522 53.4908 39.1933 53.4908 37.9041C53.4908 34.1062 51.5678 31.8349 48.3503 31.8349ZM47.3958 41.2225C46.3947 41.2225 45.673 40.92 45.0584 40.2358V36.1354C45.7382 35.293 46.6089 34.8648 47.6379 34.8648C49.1652 34.8648 50.0452 35.9958 50.0452 37.9599C50.0452 39.924 49.0301 41.2179 47.4005 41.2179L47.3958 41.2225Z" fill="white"/>
<path d="M75.3936 31.8349C74.3134 31.8349 73.2145 32.2119 72.2926 32.8961C72.246 32.9286 72.1855 32.9333 72.1389 32.91C72.1249 32.9007 72.111 32.8868 72.1017 32.8774V32.3236C72.1017 32.0443 71.8735 31.8209 71.5895 31.8209H68.7818C68.4977 31.8209 68.2696 32.049 68.2696 32.3236V46.6401C68.2696 47.1707 68.5629 47.6641 69.0379 47.9247L70.6629 48.8183C71.0074 48.9952 71.6453 49.1627 71.9014 49.0045C72.0365 48.9254 72.1017 48.7625 72.1017 48.5204V43.3495C72.1017 43.3495 72.1203 43.3263 72.1389 43.317C72.1855 43.2937 72.246 43.2937 72.2879 43.3263C73.3728 44.0384 74.4624 44.1128 74.467 44.1128C74.7557 44.1547 75.0211 44.178 75.2865 44.178C77.2142 44.178 78.8625 43.1448 79.817 41.3389C80.2919 40.3522 80.5341 39.1933 80.5341 37.9041C80.5341 34.1062 78.611 31.8349 75.3936 31.8349ZM74.4391 41.2225C73.438 41.2225 72.7163 40.92 72.1017 40.2358V36.1354C72.7815 35.293 73.6522 34.8648 74.6812 34.8648C76.2084 34.8648 77.0885 35.9958 77.0885 37.9599C77.0885 39.924 76.0734 41.2179 74.4437 41.2179L74.4391 41.2225Z" fill="white"/>
<path d="M84.8969 28.0881L83.2625 27.1898C82.9133 27.013 82.2708 26.8454 82.0147 27.0037C81.8796 27.0828 81.8145 27.2457 81.8145 27.4924V43.6613C81.8145 43.9406 82.0473 44.1686 82.3313 44.1686H85.1623C85.4463 44.1686 85.6791 43.9406 85.6791 43.6613V29.3867C85.6791 28.8514 85.3811 28.3534 84.9015 28.0881H84.8969Z" fill="white"/>
<path d="M90.0513 38.0017C89.8697 37.7224 89.879 37.3547 90.0746 37.0848L93.3479 32.5981C93.4597 32.4445 93.4736 32.2537 93.3898 32.0861C93.306 31.9186 93.143 31.8162 92.9521 31.8162H89.595C89.432 31.8162 89.2784 31.8953 89.1899 32.0303L85.8235 37.0289C85.721 37.1779 85.6652 37.3594 85.6698 37.5363C85.6745 37.755 85.7676 37.9179 85.8142 37.9877L89.2225 43.9173C89.311 44.0708 89.474 44.1639 89.6462 44.1639H93.143C93.3246 44.1639 93.4876 44.0709 93.5761 43.908C93.6645 43.7497 93.6552 43.5589 93.5528 43.4099L90.0467 38.0017H90.0513Z" fill="white"/>
<path d="M115.526 31.7976C115.265 31.7976 114.981 31.8162 114.706 31.8581C113.845 31.9559 112.727 32.4585 111.707 33.1985C111.666 33.2311 111.605 33.2358 111.558 33.2125C111.507 33.1892 111.479 33.138 111.479 33.0868V32.4911C111.479 32.1094 111.172 31.8023 110.79 31.8023H108.336C107.955 31.8023 107.647 32.1094 107.647 32.4911V43.396C107.647 43.7777 107.955 44.0849 108.336 44.0849H110.79C111.172 44.0849 111.479 43.7777 111.479 43.396V36.1493C111.479 36.1075 111.498 36.0656 111.535 36.0376C112.182 35.5164 112.853 35.158 113.509 34.9672L113.854 34.902C114.124 34.8601 114.245 34.8415 114.315 34.8415C115.661 34.8415 115.814 36.2378 115.814 37.2896V43.6008C115.814 43.8661 116.033 44.0849 116.303 44.0849H118.98C119.25 44.0849 119.469 43.8661 119.469 43.6008V36.5357C119.469 33.5243 118.031 31.8023 115.526 31.8023V31.7976Z" fill="white"/>
</svg>
